<svg width="81" height="37" viewBox="0 0 81 37" fill="none" xmlns="http://www.w3.org/2000/svg">
<path d="M80.8467 15.4136C80.9175 20.5196 80.952 25.6256 80.9999 30.7315C81.0036 31.2098 80.896 31.6821 80.6857 32.1098C80.4754 32.5375 80.1686 32.9084 79.7902 33.192C79.2826 33.5549 78.6866 33.7686 78.0676 33.8095C75.1564 34.2557 72.2031 34.657 69.2881 35.0213C50.4867 37.2304 31.498 37.2304 12.6967 35.0213C9.78166 34.6589 6.82261 34.2576 3.91715 33.8115C2.26154 33.6888 0.975327 32.4634 0.975327 30.7315C1.02318 25.6256 1.05954 20.5196 1.13036 15.4136C1.19927 20.5196 1.23755 25.6256 1.2854 30.7315C1.28868 31.3731 1.51618 31.9926 1.92718 32.4791C2.33818 32.9656 2.90585 33.2874 3.52861 33.3868L3.965 33.4472C25.5943 36.5345 47.5144 36.9055 69.2326 34.5518C72.295 34.2089 75.3957 33.8193 78.4466 33.3829C78.8605 33.3186 79.2538 33.1565 79.595 32.9095C79.9354 32.6607 80.2129 32.3332 80.4046 31.9538C80.5963 31.5745 80.6966 31.1542 80.6974 30.7276C80.7453 25.6217 80.7817 20.5157 80.8525 15.4097L80.8467 15.4136Z" fill="#262626"/>
<path d="M6.24268 22.2475C6.24268 18.5812 8.47058 16.2084 11.9847 16.2084C13.3245 16.2084 15.1294 16.7247 16.0462 17.3091C16.0137 18.3922 15.9658 19.4754 15.9984 20.5585L15.6041 20.6092C14.4806 17.7981 12.9417 16.6643 11.6478 16.6643C10.1568 16.6643 9.04286 18.3806 9.02564 21.2151C8.9931 25.0314 10.7291 26.7983 12.9742 26.7983C13.5886 26.8012 14.1944 26.6509 14.7386 26.3605C15.2827 26.0702 15.7488 25.6486 16.096 25.1327L16.4558 25.2983C15.784 27.0827 14.0805 28.3003 11.8622 28.3003C8.56819 28.3003 6.24268 25.7327 6.24268 22.2475Z" fill="#262626"/>
<path d="M17.675 26.2158C17.675 24.6573 18.4598 23.7982 22.7184 22.4151C22.6533 20.3637 22.1442 19.865 21.3269 19.865C20.5613 19.865 20.1154 20.2546 20.1154 20.7806C20.1154 21.1819 20.3776 21.3806 20.3776 21.9495C20.3777 22.1072 20.3465 22.2632 20.2858 22.4083C20.2252 22.5534 20.1363 22.6845 20.0245 22.7937C19.9127 22.9029 19.7804 22.988 19.6355 23.0437C19.4906 23.0995 19.3361 23.1249 19.1813 23.1183C18.5918 23.1183 18.0846 22.6352 18.0846 21.9027C18.0846 20.5858 19.8206 19.4345 21.8992 19.4345C23.9778 19.4345 25.153 20.2683 25.153 22.2183V25.8204C25.153 26.6853 25.5358 27.1373 25.9186 27.1373C26.0748 27.1316 26.2244 27.0726 26.3435 26.9697L26.5732 27.2035C26.2459 27.8035 25.4593 28.2204 24.6401 28.2204C24.2539 28.2073 23.8801 28.0784 23.5655 27.8501C23.2509 27.6217 23.0095 27.304 22.8715 26.9366C22.0045 27.8873 21.0877 28.3003 19.9565 28.3003C18.6071 28.3003 17.675 27.2659 17.675 26.2158ZM22.751 26.5314C22.7182 26.3785 22.7021 26.2223 22.7031 26.0658L22.7184 22.8982V22.8144C20.6723 23.4826 20.1154 24.4158 20.1154 25.4658C20.1154 26.3814 20.5575 27.0243 21.4246 27.0243C21.9108 27.0292 22.3822 26.8541 22.751 26.5314Z" fill="#262626"/>
<path d="M27.9436 25.4658V20.2313H26.3225V19.9819C27.73 19.4256 29.0064 18.5733 30.0682 17.4805L30.3802 17.6637V19.8007H32.2636V20.2352H30.3802V25.1366C30.3802 26.3853 31.0845 27.0691 31.8214 27.0691C32.065 27.0738 32.301 26.9823 32.4798 26.8139L32.7095 27.0477C32.4601 27.4302 32.1221 27.7444 31.7252 27.9625C31.3283 28.1806 30.8848 28.296 30.4338 28.2984C29.0251 28.3003 27.9436 27.2834 27.9436 25.4658Z" fill="#262626"/>
<path d="M33.0368 23.8489C33.0368 21.2638 34.7403 19.4306 36.9682 19.4306C39.1291 19.4306 40.5703 20.8313 40.4574 23.2314C38.7042 23.3151 37.1156 23.4145 35.5423 23.4982C35.7069 25.7327 36.7232 26.7983 38.4247 26.7983C38.798 26.8093 39.1692 26.7392 39.5137 26.5927C39.8583 26.4462 40.1682 26.2268 40.423 25.949L40.6144 26.099C40.155 27.3984 38.7482 28.3003 37.1692 28.3003C34.8054 28.3003 33.0368 26.3483 33.0368 23.8489ZM38.2621 22.9158C38.197 20.7144 37.6228 19.865 36.8706 19.865C36.0188 19.865 35.5423 20.7475 35.5308 22.8145V23.0814C36.5414 23.0326 37.3931 22.9645 38.2621 22.9177V22.9158Z" fill="#262626"/>
<path d="M41.3608 27.7334C42.0824 27.6165 42.5896 27.2659 42.5896 25.9801V22.7229C42.5896 22.0722 42.1303 21.6066 41.3608 21.6066V21.256C42.5565 20.7912 43.6732 20.1385 44.6701 19.3215L44.9649 19.5046V21.0631C45.7496 20.0618 46.7009 19.4286 47.4378 19.4286C47.6132 19.4194 47.7886 19.4466 47.9532 19.5086C48.1179 19.5707 48.2685 19.6663 48.3957 19.7895C48.5228 19.9128 48.624 20.0611 48.693 20.2255C48.7619 20.3899 48.7972 20.5668 48.7967 20.7456C48.7967 21.4956 48.3393 21.9456 47.6177 21.9456C46.6837 21.9456 46.3736 21.0125 45.9142 21.0125C45.6692 21.0125 45.3075 21.2287 45.03 21.4956V25.6451C45.03 27.1451 45.4568 27.6126 46.4215 27.7295V28.1289C44.5074 28.0782 43.1141 28.0782 41.3608 28.1289V27.7334Z" fill="#262626"/>
<path d="M49.2848 27.7334C50.0045 27.6165 50.5136 27.2659 50.5136 25.9801V22.7229C50.5136 22.0391 50.1193 21.6729 49.2848 21.6066V21.256C50.4995 20.7895 51.6358 20.1343 52.6534 19.3137L52.9482 19.4968V25.645C52.9482 27.1451 53.3731 27.6126 54.0124 27.7295V28.1289C52.4238 28.0782 51.0304 28.0782 49.2791 28.1289L49.2848 27.7334Z" fill="#262626"/>
<path d="M54.6727 27.7334C55.3943 27.6165 55.9015 27.2659 55.9015 25.9801V22.7229C55.9015 22.0391 55.5092 21.6729 54.6727 21.6066V21.256C55.8682 20.7908 56.9849 20.1381 57.9821 19.3215L58.2768 19.5046V20.9891C59.1439 20.015 60.4377 19.4306 61.5306 19.4306C62.9068 19.4306 63.9059 20.4475 63.9059 21.9144V25.6451C63.9059 27.1451 64.3327 27.6126 65.1347 27.7295V28.1289C63.3815 28.0782 61.99 28.0782 60.4014 28.1289V27.7295C60.9583 27.6126 61.4655 27.262 61.4655 25.9762V22.4151C61.4655 21.1313 61.0406 20.5488 60.3037 20.5488C59.9321 20.557 59.566 20.6425 59.228 20.7999C58.8899 20.9574 58.5871 21.1835 58.3381 21.4644V25.6451C58.3381 27.1451 58.763 27.6126 59.4022 27.7295V28.1289C57.8136 28.0782 56.4221 28.0782 54.6689 28.1289L54.6727 27.7334Z" fill="#262626"/>
<path d="M65.5481 29.2159C65.5481 28.5321 65.9079 28.0665 67.0219 27.6574C66.3348 27.3906 65.8601 26.9405 65.8601 26.1243C65.8601 25.4561 66.1701 25.0723 67.4315 24.5658C66.3826 24.0983 65.973 23.2489 65.973 22.1989C65.973 20.7475 67.4143 19.4306 69.7742 19.4306C71.3054 19.4306 72.3122 19.8319 72.8366 20.4144C73.1965 19.6644 73.7936 19.1812 74.4903 19.1812C75.187 19.1812 75.7344 19.6313 75.7344 20.4144C75.7344 21.0319 75.3516 21.5482 74.72 21.5482C73.8185 21.5482 73.8836 20.7144 73.4759 20.7144C73.3347 20.7206 73.198 20.7672 73.0816 20.8488C73.3124 21.2716 73.4311 21.7483 73.4261 22.232C73.4261 23.8489 72.05 24.9593 69.6268 24.9593C69.1259 24.9664 68.6257 24.9161 68.1358 24.8093C67.9234 24.9418 67.8411 25.0411 67.8411 25.2418C67.8411 26.2256 74.2281 25.1756 74.2281 28.5263C74.2281 29.9601 72.7543 31.127 69.6919 31.127C66.842 31.1173 65.5481 30.2504 65.5481 29.2159ZM72.0997 29.3172C72.0997 28.0159 69.6919 28.2653 67.8736 27.8503C67.5789 28.0997 67.4315 28.4659 67.4315 28.9822C67.4315 29.9328 68.4631 30.716 69.8393 30.716C71.2959 30.7101 72.0997 30.0166 72.0997 29.3172ZM70.9686 22.7482C71.0355 20.9151 70.5436 19.8261 69.6594 19.8261C69.0201 19.8261 68.4804 20.4417 68.4306 21.6261C68.3655 23.6268 69.0201 24.5483 69.757 24.5483C70.3963 24.5483 70.936 23.8489 70.9686 22.7482Z" fill="#262626"/>
<path d="M51.6505 18.4974C52.4507 18.4974 53.0994 17.8372 53.0994 17.0227C53.0994 16.2083 52.4507 15.548 51.6505 15.548C50.8503 15.548 50.2016 16.2083 50.2016 17.0227C50.2016 17.8372 50.8503 18.4974 51.6505 18.4974Z" fill="#C12038"/>
<path d="M32.8779 2.56975L31.3295 4.51785C31.4032 4.89044 31.4397 5.26964 31.4386 5.6497C31.4386 7.52378 30.4988 9.3511 28.4566 9.3511H27.4996L26.378 10.7654H28.3628C32.1257 10.7654 33.722 8.23289 33.722 5.53476C33.7491 4.48131 33.4542 3.44528 32.8779 2.56975ZM26.9771 1.91518H28.0202C29.4251 1.91518 30.3782 2.47234 30.9123 3.40354L32.1927 1.78661C31.2951 0.976197 30.049 0.514496 28.537 0.514496H23.863C24.0123 0.545666 24.7989 0.728787 24.7989 2.23857V8.86212C24.7989 10.5998 24.0907 10.7557 23.9682 10.7693H25.0918L26.9866 8.37899L26.9771 1.91518Z" fill="#C12038"/>
<path d="M42.1992 9.08616V5.2854L40.5225 3.08989V9.08616C40.5225 10.6096 39.8583 10.7479 39.7569 10.7615H43.1121C42.9552 10.7479 42.1992 10.5609 42.1992 9.08616ZM46.2683 0.514496C46.4023 0.545666 47.0971 0.728787 47.0971 2.2074V6.55362L42.3523 0.514496H39.8411L47.6655 10.7615H48.7604V2.2074C48.7604 0.683981 49.4417 0.528133 49.547 0.514496H46.2683Z" fill="#C12038"/>
<path d="M37.8027 9.17772V2.17623C37.8027 1.05607 38.2027 0.689825 38.4324 0.569043C38.48 0.543749 38.5309 0.525387 38.5836 0.514496L34.8685 0.514496C34.9738 0.545666 35.6552 0.728787 35.6552 2.17623V9.17772C35.6552 10.6096 34.9738 10.7479 34.8685 10.7615H38.5721C38.4534 10.7479 37.8027 10.5609 37.8027 9.17772Z" fill="#C12038"/>
<path d="M55.9073 9.34136L54.7799 10.7615H57.4959L57.9763 7.89976C57.4519 8.86407 56.9887 9.28097 55.9073 9.34136ZM53.553 6.28673H55.2469C56.3034 6.28673 56.4125 6.74453 56.4259 6.79324V4.362C56.3953 4.45551 56.2345 4.88215 55.2163 4.88215H53.553V1.91518H55.4575C56.7284 1.91518 57.0901 2.56195 57.3026 3.25158V0.514496H50.4543C50.6074 0.545666 51.3921 0.74632 51.3921 2.23857V8.93031C51.3921 10.5784 50.682 10.7479 50.5767 10.7615H53.4688L54.5866 9.3472H53.553V6.28673Z" fill="#C12038"/>
</svg>
