<svg width="111" height="33" viewBox="0 0 111 33" fill="none" xmlns="http://www.w3.org/2000/svg">
<path d="M69.4606 8.42736C68.9098 3.9494 62.858 0.414398 55.4976 0.414398C48.1372 0.414398 42.0854 3.9494 41.5368 8.42736H0.807129V32.4293H110.195V8.42736H69.4606ZM109.847 32.0795H1.15295V8.78151H41.8549C41.8549 8.66201 41.8741 8.54685 41.889 8.42736C42.4419 4.14711 48.3422 0.777241 55.4976 0.777241C62.6531 0.777241 68.5597 4.15581 69.1126 8.43605C69.1276 8.55555 69.1404 8.6707 69.1446 8.7902H109.847V32.0795Z" fill="#008994"/>
<path d="M55.9715 12.2361C56.4414 12.233 56.9033 12.36 57.3079 12.6033C57.7068 12.8452 58.0382 13.187 58.2706 13.5962C58.4875 13.9879 58.6061 14.428 58.6158 14.8776C58.6255 15.3271 58.526 15.7721 58.3261 16.1731C58.1358 16.5508 57.86 16.877 57.5213 17.1247C57.1803 17.3732 56.7871 17.5376 56.3729 17.6049C57.7988 17.9851 58.8512 18.7173 59.5578 19.7776C60.2644 20.8379 60.6081 22.1306 60.6081 23.6103C60.6115 24.7354 60.3097 25.8397 59.7361 26.8015C59.1625 27.7633 58.3392 28.5454 57.357 29.0616C56.2725 29.637 55.0639 29.9275 53.8411 29.9068C52.724 29.9373 51.6189 29.6651 50.6391 29.1181C49.793 28.6377 49.1013 27.9187 48.6475 27.0475C48.1991 26.2293 47.9654 25.3075 47.9686 24.3707C47.9664 23.6855 48.0932 23.0062 48.3422 22.3696C48.5917 21.7306 48.9799 21.1572 49.4779 20.6923C49.9965 20.2128 50.6166 19.8612 51.2902 19.6646V13.1617C51.279 13.0506 51.2399 12.9443 51.1768 12.853C51.1136 12.7617 51.0284 12.6884 50.9294 12.6402C50.7312 12.5137 50.5153 12.4185 50.289 12.3578V12.2448L55.9715 12.2361ZM51.1557 26.2957C51.2545 26.1516 51.3033 25.978 51.2945 25.8025V20.5489C50.4914 20.8036 49.8011 21.3363 49.3434 22.0546C48.8903 22.7712 48.6542 23.6077 48.6645 24.4598C48.6646 25.3138 48.869 26.155 49.2601 26.9106C49.6737 27.7306 50.3061 28.4153 51.0847 28.8861C51.8633 29.3569 52.7565 29.5947 53.6618 29.5722C54.7249 29.5951 55.7735 29.3176 56.6909 28.7704C57.5496 28.2587 58.25 27.5119 58.7125 26.6151C59.1879 25.685 59.4306 24.6499 59.4191 23.6016C59.4312 22.5557 59.1837 21.5237 58.6997 20.6011C58.2375 19.7128 57.5544 18.9637 56.7187 18.4283C55.8882 17.8961 54.925 17.6178 53.9436 17.6266H52.4899V19.4278C52.6461 19.4151 52.8029 19.4108 52.9595 19.4148C53.848 19.3811 54.7273 19.6073 55.4934 20.0666C56.135 20.4656 56.657 21.036 57.0026 21.7157C57.3168 22.364 57.4825 23.0764 57.4872 23.7993C57.4872 24.1763 57.4354 24.5514 57.3335 24.9139C57.2458 25.2422 57.1012 25.552 56.9065 25.8286L56.8382 25.8003C56.9892 25.3517 57.0615 24.8796 57.0517 24.4055C57.0496 23.7183 56.8979 23.0401 56.6077 22.4196C56.3088 21.7832 55.8388 21.246 55.2522 20.8705C54.5612 20.4568 53.7692 20.2512 52.9681 20.2773C52.8064 20.2724 52.6446 20.2775 52.4835 20.2925V25.8003C52.4734 25.976 52.5224 26.1499 52.6222 26.2936C52.6991 26.4204 52.8092 26.5227 52.9403 26.589V26.702H50.8227V26.589C50.959 26.5257 51.0745 26.4239 51.1557 26.2957ZM56.6781 16.7358C57.0944 16.3512 57.3079 15.745 57.3079 14.9411C57.3114 14.5195 57.2116 14.1035 57.0175 13.7309C56.8155 13.3759 56.5302 13.0773 56.1871 12.8619C55.812 12.6509 55.3881 12.5466 54.9597 12.5598H52.4984V17.3072H54.9597C55.6962 17.3072 56.264 17.1117 56.6781 16.7315V16.7358Z" fill="#008994"/>
<path d="M63.0011 24.0252V15.9558C63.0061 15.7938 62.9658 15.6337 62.885 15.4941C62.8041 15.3545 62.6859 15.2411 62.5443 15.1671V15.0541H64.6341V15.1671C64.4917 15.2402 64.373 15.3534 64.292 15.4933C64.211 15.6331 64.1712 15.7936 64.1773 15.9558V24.0252C64.1712 24.1874 64.211 24.348 64.292 24.4878C64.373 24.6276 64.4917 24.7408 64.6341 24.8139V24.9269H62.5443V24.8139C62.685 24.7388 62.8023 24.6251 62.883 24.4858C62.9637 24.3464 63.0046 24.187 63.0011 24.0252Z" fill="#008994"/>
<path d="M68.4274 18.5066C68.69 18.6608 69.0678 18.8585 69.5332 19.0823C70.0373 19.3113 70.5277 19.5703 71.0018 19.858C71.3812 20.1009 71.7063 20.4221 71.956 20.8009C72.2262 21.2291 72.3617 21.7308 72.3446 22.2393C72.3445 22.7233 72.2201 23.1989 71.9838 23.6189C71.7365 24.0514 71.3778 24.4067 70.9463 24.6466C70.4887 24.9176 69.9664 25.0544 69.4371 25.0421C68.8537 25.068 68.2716 24.9673 67.7294 24.7466C67.3065 24.5417 66.9147 24.2761 66.566 23.9579V22.815H66.662C66.8198 23.1185 67.0004 23.409 67.2021 23.6841C67.4306 23.9723 67.7128 24.2115 68.0325 24.3881C68.4566 24.6374 68.9413 24.7595 69.4307 24.7401C69.9828 24.7675 70.5238 24.5759 70.9399 24.2056C71.1302 24.0163 71.2781 23.7876 71.3735 23.5348C71.4689 23.2821 71.5096 23.0114 71.4928 22.7412C71.4995 22.4279 71.4017 22.1215 71.2153 21.8721C71.0217 21.6223 70.7879 21.4077 70.5237 21.2377C70.2483 21.0682 69.8726 20.8574 69.3902 20.6184C68.9063 20.378 68.4359 20.1104 67.9813 19.8167C67.6113 19.577 67.2955 19.26 67.0548 18.8868C66.7848 18.4691 66.6491 17.9764 66.6663 17.4767C66.6577 17.0131 66.7728 16.5558 66.9993 16.1535C67.2174 15.7693 67.5389 15.4564 67.9258 15.2518C68.3502 15.0329 68.8204 14.9219 69.2962 14.9281C69.6765 14.9334 70.054 14.9949 70.4169 15.1106C70.8087 15.2284 71.185 15.394 71.5377 15.6038V16.7315H71.4416C71.2319 16.3174 70.9344 15.956 70.5706 15.6733C70.1885 15.3776 69.7207 15.2194 69.2407 15.2236C69.0047 15.2179 68.7703 15.2636 68.5531 15.3577C68.3359 15.4517 68.1409 15.592 67.9813 15.7689C67.6533 16.1442 67.4798 16.6336 67.4967 17.1356C67.4962 17.4189 67.5919 17.6938 67.7678 17.9134C67.9481 18.1525 68.1721 18.3539 68.4274 18.5066Z" fill="#008994"/>
<path d="M80.2044 15.8993C80.0754 15.7442 79.9171 15.6169 79.7389 15.5251C79.5607 15.4333 79.3662 15.3788 79.167 15.3648H77.3525V24.0252C77.3464 24.1874 77.3863 24.348 77.4672 24.4878C77.5482 24.6276 77.667 24.7408 77.8093 24.8139V24.9269H75.6917V24.8139C75.8324 24.7388 75.9497 24.6251 76.0304 24.4858C76.1111 24.3464 76.152 24.187 76.1485 24.0252V15.3648H74.3212C74.1208 15.3661 73.9247 15.4249 73.7556 15.5343C73.585 15.6371 73.4267 15.7596 73.2838 15.8993H73.1728L73.4225 15.0541H80.0657L80.3154 15.8993H80.2044Z" fill="#008994"/>
<path d="M89.3281 24.6054C89.4455 24.7167 89.5954 24.7861 89.755 24.8031V24.9161H88.993C88.7144 24.928 88.4365 24.8798 88.1775 24.7748C87.999 24.7148 87.8342 24.6187 87.6929 24.4924C87.5735 24.3636 87.4623 24.2271 87.3599 24.0839L85.1868 21.1681H83.6349V24.0426C83.6283 24.2091 83.6772 24.373 83.7737 24.5076C83.8595 24.6265 83.9676 24.7269 84.0917 24.8031V24.9161H81.9741V24.8031C82.1148 24.7279 82.2321 24.6143 82.3128 24.4749C82.3935 24.3356 82.4345 24.1761 82.4309 24.0144V15.9558C82.436 15.7938 82.3957 15.6337 82.3148 15.4941C82.234 15.3544 82.1158 15.2411 81.9741 15.1671V15.0541H86.6384C87.168 15.0526 87.6887 15.1935 88.1476 15.4626C88.6037 15.7317 88.985 16.1145 89.2555 16.575C89.5199 17.0421 89.6584 17.572 89.6568 18.1111C89.66 18.6504 89.5215 19.1808 89.2555 19.6472C88.9915 20.109 88.6084 20.4885 88.1476 20.7445C87.6582 21.0165 87.1106 21.162 86.553 21.1681L88.5596 23.7602C88.6023 23.8015 88.6984 23.9296 88.8499 24.1252C88.9875 24.3063 89.1483 24.4678 89.3281 24.6054ZM87.1507 20.449C87.5342 20.196 87.8526 19.8533 88.0793 19.4495C88.301 19.0398 88.415 18.5788 88.4102 18.1111C88.4211 17.6281 88.3171 17.1495 88.1071 16.7162C87.9006 16.3059 87.5837 15.9638 87.1934 15.7298C86.7444 15.4777 86.2375 15.3517 85.7248 15.3648H83.6349V20.8574H85.8507C86.3124 20.8437 86.7618 20.7025 87.1507 20.449Z" fill="#008994"/>
<path d="M100.369 17.4354C100.751 18.2336 100.944 19.1115 100.934 19.9992C100.945 20.8748 100.745 21.7399 100.354 22.5196C99.9721 23.2865 99.3785 23.9232 98.6459 24.3511C97.8306 24.8293 96.9012 25.0685 95.9605 25.0421C95.0176 25.0697 94.085 24.8361 93.2623 24.3664C92.5245 23.9452 91.9292 23.3067 91.5545 22.5348C91.1722 21.7467 90.9777 20.8781 90.9867 19.9992C90.9775 19.1113 91.1719 18.2334 91.5545 17.4354C91.9364 16.6687 92.53 16.0321 93.2623 15.6038C94.0846 15.133 95.0175 14.8994 95.9605 14.9281C96.9081 14.9014 97.8453 15.1348 98.6737 15.6038C99.3987 16.0374 99.9868 16.6729 100.369 17.4354ZM99.2052 22.3805C99.4908 21.6177 99.6313 20.8067 99.6194 19.9905C99.6315 19.168 99.491 18.3505 99.2052 17.581C98.944 16.9073 98.5142 16.3148 97.9586 15.8624C97.382 15.4324 96.6815 15.2093 95.9669 15.2279C95.256 15.2072 94.5589 15.4307 93.9881 15.8624C93.4239 16.3095 92.993 16.9076 92.7435 17.5897C92.4473 18.3566 92.3022 19.1753 92.3166 19.9992C92.3024 20.8168 92.4475 21.6291 92.7435 22.3892C92.9915 23.0697 93.4238 23.6648 93.9902 24.1056C94.5606 24.5383 95.258 24.7619 95.969 24.7401C96.6838 24.7599 97.3846 24.5366 97.9607 24.1056C98.5196 23.6541 98.9493 23.0584 99.2052 22.3805Z" fill="#008994"/>
<path d="M18.6018 16.1513L16.9453 18.2415C17.0239 18.6435 17.0625 19.0526 17.0606 19.4625C17.0606 21.4701 16.0573 23.4147 13.8714 23.4147H12.8531L11.6535 24.9356H13.7775C17.8035 24.9161 19.524 22.2002 19.524 19.3191C19.5464 18.1915 19.2242 17.0846 18.6018 16.1513ZM12.2875 15.4496H13.4039C14.8982 15.4496 15.9271 16.047 16.4992 17.0421L17.8696 15.304C16.909 14.4349 15.5749 13.9439 13.9546 13.9439H8.95735C9.11745 13.9765 9.95638 14.1611 9.95638 15.7885V22.8672C9.95638 24.7249 9.20071 24.8922 9.06836 24.9074H10.2616L12.2875 22.3501V15.4496Z" fill="#008994"/>
<path d="M28.5751 23.1214V19.0563L26.7819 16.7076V23.1214C26.7819 24.7531 26.0711 24.9008 25.9558 24.9161H29.557C29.3841 24.8943 28.5751 24.701 28.5751 23.1214ZM32.9277 13.9526C33.0728 13.9852 33.8157 14.1698 33.8157 15.7624V20.4229L28.7394 13.9526H26.054L34.4262 24.9161H35.596V15.7689C35.596 14.1394 36.3239 13.9721 36.4371 13.9591L32.9277 13.9526Z" fill="#008994"/>
<path d="M23.8702 23.2213V15.7298C23.8702 14.5305 24.2972 14.1394 24.5448 14.0112C24.595 13.9821 24.65 13.9622 24.707 13.9526H20.7323C20.8454 13.9852 21.5733 14.1698 21.5733 15.7298V23.2213C21.5733 24.7422 20.8454 24.9008 20.7323 24.9161H24.6942C24.5661 24.8943 23.8702 24.701 23.8702 23.2213Z" fill="#008994"/>
<path d="M43.2318 23.3952L42.0257 24.9161H44.9267L45.4412 21.8525C44.8968 22.8867 44.3995 23.3322 43.2318 23.3952ZM40.7235 20.1361H42.5359C43.6673 20.1361 43.7825 20.6271 43.7975 20.6771V18.0698C43.7655 18.1698 43.584 18.6282 42.5039 18.6282H40.7235V15.4496H42.7622C44.1198 15.4496 44.5083 16.1427 44.7367 16.8814V13.9526H37.4084C37.5706 13.9852 38.4117 14.1981 38.4117 15.7972V22.9671C38.4117 24.7314 37.6517 24.9226 37.5386 24.9226H40.6339L41.8293 23.4017H40.7235V20.1361Z" fill="#008994"/>
<path d="M49.5974 5.32472C49.5974 4.96405 49.4288 4.91191 49.3839 4.89018H50.5473C51.0575 4.89018 51.2859 5.21609 51.2859 5.542C51.2871 5.68744 51.2405 5.82911 51.1535 5.94447C51.0664 6.05983 50.944 6.14224 50.8056 6.1786C50.975 6.19852 51.1311 6.28182 51.2435 6.41232C51.356 6.54281 51.4167 6.71119 51.414 6.88473C51.4138 6.98549 51.393 7.08511 51.353 7.17727C51.313 7.26943 51.2546 7.35214 51.1816 7.42015C51.1085 7.48816 51.0224 7.54 50.9287 7.57238C50.8349 7.60475 50.7356 7.61697 50.637 7.60824H49.4095C49.4501 7.60824 49.5995 7.54741 49.5995 7.1737L49.5974 5.32472ZM50.4107 6.07214C50.4693 6.07265 50.5274 6.06035 50.5809 6.03607C50.6345 6.0118 50.6823 5.97611 50.7212 5.93142C50.76 5.88673 50.789 5.83408 50.8061 5.77702C50.8233 5.71996 50.8282 5.65982 50.8206 5.60066C50.8216 5.54421 50.8111 5.48815 50.7897 5.43604C50.7683 5.38393 50.7366 5.3369 50.6965 5.2979C50.6564 5.25891 50.6087 5.2288 50.5566 5.20948C50.5045 5.19017 50.449 5.18206 50.3936 5.18567H50.0393V6.07214H50.4107ZM50.4683 7.33014C50.5308 7.33827 50.5942 7.33226 50.654 7.31255C50.7139 7.29283 50.7687 7.25989 50.8146 7.21608C50.8605 7.17228 50.8963 7.11869 50.9195 7.05915C50.9427 6.99962 50.9526 6.93561 50.9486 6.8717C50.9536 6.80184 50.9435 6.73173 50.9192 6.66623C50.8948 6.60073 50.8567 6.54142 50.8076 6.49242C50.7584 6.44342 50.6993 6.4059 50.6345 6.38247C50.5696 6.35905 50.5006 6.35027 50.4321 6.35676H50.0371V7.33014H50.4683Z" fill="#008994"/>
<path d="M52.0245 7.61911C52.0651 7.61911 52.2081 7.54958 52.3682 7.1259L53.2221 4.89887H53.5679L54.4346 7.13242C54.5904 7.54523 54.7505 7.61042 54.7911 7.61911H53.8924C53.9332 7.61367 53.9703 7.59223 53.9958 7.55936C54.0213 7.52649 54.0332 7.48479 54.029 7.44312C54.0201 7.36261 53.9985 7.2841 53.9649 7.21064L53.8433 6.88908H52.7887L52.6756 7.1976C52.6455 7.26645 52.6268 7.33985 52.6201 7.41487C52.6152 7.4605 52.6277 7.50631 52.6552 7.54274C52.6826 7.57917 52.7228 7.60341 52.7674 7.61042L52.0245 7.61911ZM53.7323 6.61531L53.3053 5.48333L52.8784 6.61531H53.7323Z" fill="#008994"/>
<path d="M55.6001 5.31603C55.6001 4.95971 55.4443 4.91191 55.4037 4.89887H56.2405C56.2042 4.89887 56.0548 4.95971 56.0548 5.31603V6.14818L56.8019 5.3269C56.9578 5.15525 57.0026 5.05313 57.0026 4.9923C57.0026 4.93146 56.9428 4.90756 56.9172 4.89887H57.7924C57.7455 4.89887 57.532 4.97274 57.1947 5.33341L56.4753 6.10907L57.3292 7.16284C57.6622 7.57565 57.8116 7.59738 57.8714 7.61259H57.0944L56.042 6.28072V7.19977C56.042 7.54306 56.1743 7.6039 56.2234 7.61259H55.4037C55.4443 7.61259 55.5958 7.56044 55.5958 7.19977L55.6001 5.31603Z" fill="#008994"/>
<path d="M58.5033 5.31169C58.5033 4.96405 58.3517 4.91191 58.3111 4.89887H59.1309C59.0903 4.89887 58.9494 4.96405 58.9494 5.303V6.68701C58.9494 7.18239 59.1458 7.36924 59.5706 7.36924C60.0296 7.36924 60.1662 7.11287 60.1662 6.69136V5.32038C60.1662 4.9684 60.0018 4.90756 59.9527 4.89887H60.7361C60.6913 4.89887 60.5355 4.9684 60.5355 5.32038V6.67615C60.5355 7.36273 60.2025 7.67994 59.5322 7.67994C58.8085 7.67994 58.5033 7.35838 58.5033 6.7044V5.31169Z" fill="#008994"/>
</svg>
