<svg width="89" height="21" viewBox="0 0 89 21" fill="none" xmlns="http://www.w3.org/2000/svg">
<path d="M38.2225 20.2741H36.4986C36.634 20.2531 36.7006 20.1176 36.7006 19.8723V17.8653C36.7006 17.6317 36.6317 17.4892 36.4848 17.4681H38.1513V18.0522C38.1414 17.9439 38.0902 17.8439 38.0087 17.7736C37.9271 17.7033 37.8218 17.6683 37.7152 17.6761H37.0265V18.7415H37.5912C37.7749 18.7415 37.8782 18.6737 37.9034 18.5429V19.148C37.8828 19.0148 37.7772 18.9494 37.5958 18.9494H37.0265V20.0732H37.7152C38.0435 20.0732 38.1743 19.9704 38.3097 19.6363L38.2225 20.2741Z" fill="#262626"/>
<path d="M40.0911 20.0382C39.9956 20.1442 39.8773 20.2263 39.7455 20.2782C39.6137 20.33 39.472 20.3502 39.3312 20.3372C39.0762 20.3442 38.8259 20.2671 38.6173 20.1176V19.4751C38.7505 19.9073 39.003 20.1223 39.3817 20.1223C39.5185 20.1284 39.653 20.0863 39.7628 20.0031C39.818 19.963 39.8624 19.9096 39.8921 19.8475C39.9218 19.7855 39.9357 19.7169 39.9327 19.648C39.9262 19.5386 39.8924 19.4328 39.8346 19.3404C39.7767 19.248 39.6967 19.1722 39.6021 19.12L38.9823 18.7531C38.8819 18.6866 38.799 18.596 38.7409 18.4893C38.6829 18.3826 38.6515 18.263 38.6495 18.141C38.648 18.0487 38.6645 17.957 38.698 17.8712C38.7315 17.7854 38.7813 17.7072 38.8446 17.641C38.9309 17.5569 39.0334 17.4919 39.1456 17.4501C39.2578 17.4082 39.3773 17.3905 39.4965 17.398C39.712 17.3892 39.9238 17.457 40.0956 17.5896V18.1457C40.0692 17.9921 39.9891 17.8534 39.8702 17.7551C39.7512 17.6568 39.6014 17.6055 39.4483 17.6106C39.3845 17.6055 39.3202 17.6138 39.2596 17.6348C39.199 17.6558 39.1432 17.6893 39.0957 17.733C39.0482 17.7768 39.01 17.8299 38.9834 17.8892C38.9568 17.9485 38.9424 18.0127 38.941 18.0779C38.9501 18.1811 38.9859 18.28 39.0448 18.3646C39.1037 18.4491 39.1835 18.5163 39.2762 18.5592L39.9074 18.9307C40.0121 19.0037 40.0977 19.1017 40.1565 19.2162C40.2153 19.3307 40.2457 19.4581 40.2449 19.5872C40.247 19.7512 40.1926 19.9108 40.0911 20.0382Z" fill="#262626"/>
<path d="M42.8067 18.0592C42.7809 17.9484 42.7261 17.8467 42.6483 17.7648C42.5536 17.6925 42.4356 17.6591 42.3177 17.6714H41.8403V19.8816C41.8403 20.1153 41.9068 20.2531 42.0377 20.2741H41.3031C41.4363 20.2523 41.5028 20.1215 41.5028 19.8816V17.6714H41.0208C40.9038 17.661 40.7869 17.6924 40.6902 17.7602C40.6124 17.842 40.5576 17.9437 40.5318 18.0546L40.5731 17.4588H42.7654L42.8067 18.0592Z" fill="#262626"/>
<path d="M45.8138 20.2741H43.9613L44.588 19.5732C44.8026 19.3498 44.9962 19.1066 45.1664 18.8466C45.2927 18.6611 45.3658 18.4435 45.3776 18.2181C45.383 18.1327 45.3708 18.047 45.342 17.9666C45.3131 17.8862 45.2682 17.8127 45.2101 17.7508C45.1581 17.6982 45.096 17.6571 45.0276 17.6302C44.9593 17.6032 44.8862 17.591 44.8129 17.5943C44.7562 17.5875 44.6986 17.5923 44.6437 17.6084C44.5888 17.6246 44.5376 17.6517 44.4931 17.6883C44.4486 17.7249 44.4118 17.7701 44.3847 17.8214C44.3576 17.8726 44.3409 17.9289 44.3355 17.9868C44.3286 18.0487 44.3448 18.1109 44.381 18.1611C44.4171 18.2114 44.4706 18.2459 44.5306 18.2578L44.2597 18.4915C44.1944 18.4528 44.1404 18.3972 44.1033 18.3302C44.0662 18.2633 44.0473 18.1875 44.0485 18.1106C44.0465 18.0157 44.0642 17.9214 44.1006 17.834C44.137 17.7466 44.1913 17.6681 44.2597 17.6036C44.4377 17.4434 44.6697 17.3597 44.9071 17.37C45.1101 17.3626 45.3087 17.4317 45.4649 17.5639C45.5479 17.6362 45.6138 17.7268 45.6576 17.8288C45.7013 17.9308 45.7217 18.0415 45.7174 18.1527C45.7043 18.422 45.6115 18.681 45.4511 18.8957C45.2472 19.1785 45.0248 19.447 44.7854 19.6994L44.5076 20.0078H45.3845C45.4819 20.0207 45.5809 20.0077 45.6718 19.9701C45.7628 19.9324 45.8425 19.8713 45.9033 19.7928L45.8138 20.2741Z" fill="#262626"/>
<path d="M47.7741 19.9354C47.7112 20.0529 47.6193 20.1517 47.5075 20.2222C47.3958 20.2928 47.268 20.3326 47.1366 20.3377C47.0052 20.3429 46.8747 20.3133 46.7579 20.2518C46.6411 20.1903 46.542 20.0989 46.4703 19.9868C46.275 19.6777 46.1802 19.314 46.1994 18.9471C46.1807 18.547 46.2747 18.1498 46.4703 17.8022C46.535 17.6819 46.6298 17.5812 46.7451 17.5102C46.8604 17.4392 46.9921 17.4005 47.1268 17.398C47.256 17.3991 47.3829 17.433 47.4959 17.4967C47.6089 17.5603 47.7046 17.6517 47.7741 17.7625C47.9663 18.072 48.0601 18.4342 48.0427 18.7999C48.0603 19.1966 47.9672 19.5903 47.7741 19.9354ZM47.517 17.9541C47.4821 17.8641 47.4228 17.786 47.346 17.729C47.2692 17.6719 47.1781 17.6382 47.0832 17.6317C46.9984 17.6358 46.9165 17.6637 46.8463 17.7124C46.7762 17.7611 46.7208 17.8285 46.6861 17.9074C46.5608 18.167 46.5023 18.4548 46.5162 18.7438C46.4988 19.105 46.5657 19.4653 46.7113 19.7952C46.7461 19.8881 46.8064 19.9689 46.8849 20.0281C46.9634 20.0873 47.0569 20.1224 47.1544 20.1293C47.2382 20.1252 47.3194 20.0977 47.389 20.05C47.4586 20.0022 47.514 19.9359 47.5492 19.8583C47.6755 19.5973 47.7339 19.3077 47.7191 19.0172C47.7358 18.6515 47.6666 18.287 47.517 17.9541Z" fill="#262626"/>
<path d="M50.1569 20.2741H48.3044L48.9311 19.5732C49.1456 19.3498 49.3393 19.1066 49.5095 18.8466C49.6358 18.6611 49.7089 18.4435 49.7207 18.2181C49.7263 18.1328 49.7146 18.0473 49.6861 17.9669C49.6577 17.8864 49.6132 17.8129 49.5554 17.7508C49.5032 17.6979 49.4407 17.6567 49.3719 17.6297C49.3032 17.6028 49.2296 17.5907 49.156 17.5943C49.0992 17.5875 49.0417 17.5923 48.9868 17.6084C48.9318 17.6246 48.8806 17.6517 48.8362 17.6883C48.7917 17.7249 48.7548 17.7701 48.7278 17.8214C48.7007 17.8726 48.684 17.9289 48.6786 17.9868C48.6716 18.0487 48.6879 18.1109 48.724 18.1611C48.7602 18.2114 48.8136 18.2459 48.8737 18.2578L48.6051 18.4915C48.539 18.4535 48.4843 18.3981 48.4467 18.331C48.4092 18.264 48.3901 18.1878 48.3916 18.1106C48.3894 18.0155 48.4073 17.921 48.4441 17.8335C48.481 17.746 48.5359 17.6676 48.6051 17.6036C48.7831 17.4434 49.0151 17.3597 49.2524 17.37C49.4547 17.3628 49.6526 17.4318 49.8079 17.5639C49.8913 17.6361 49.9575 17.7266 50.0017 17.8286C50.0458 17.9305 50.0667 18.0413 50.0627 18.1527C50.0441 18.4138 49.9498 18.6634 49.7919 18.87C49.588 19.1528 49.3656 19.4213 49.1262 19.6737L48.8484 19.9821H49.7253C49.8227 19.995 49.9217 19.982 50.0126 19.9444C50.1035 19.9067 50.1833 19.8456 50.2441 19.7671L50.1569 20.2741Z" fill="#262626"/>
<path d="M51.2748 20.2741C51.3167 20.2509 51.3534 20.2191 51.3827 20.1807C51.4522 20.0592 51.4842 19.9191 51.4745 19.7788V17.8653L50.7675 18.3326V18.0639L51.7844 17.384V19.7788C51.7747 19.9191 51.8067 20.0592 51.8762 20.1807C51.9069 20.2195 51.9452 20.2514 51.9887 20.2741H51.2748Z" fill="#262626"/>
<path d="M34.249 19.1854C34.4252 19.1854 34.5681 19.04 34.5681 18.8606C34.5681 18.6813 34.4252 18.5359 34.249 18.5359C34.0728 18.5359 33.9299 18.6813 33.9299 18.8606C33.9299 19.04 34.0728 19.1854 34.249 19.1854Z" fill="#262626"/>
<path d="M54.2153 19.1854C54.3916 19.1854 54.5344 19.04 54.5344 18.8606C54.5344 18.6813 54.3916 18.5359 54.2153 18.5359C54.0391 18.5359 53.8963 18.6813 53.8963 18.8606C53.8963 19.04 54.0391 19.1854 54.2153 19.1854Z" fill="#262626"/>
<path d="M9.00301 7.744C8.70689 9.22061 7.86902 10.4636 6.42744 10.8257L4.9147 12.6364H5.4266C9.96253 12.6364 11.8931 9.57808 11.8931 6.32814C11.8938 5.72546 11.8167 5.1253 11.6635 4.54313L9.00301 7.744Z" fill="#C12038"/>
<path d="M3.75086 10.9309V1.97776H5.0088C7.68537 1.97776 9.00299 3.66465 9.11547 6.12488L11.2939 3.51512C10.3482 1.52684 8.335 0.290878 5.62859 0.290878H0C0.181345 0.328261 1.12939 0.550219 1.12939 2.36794V10.3374C1.12939 12.4402 0.273166 12.6177 0.126253 12.6364H3.67282L5.09603 10.9309H3.75086Z" fill="#C12038"/>
<path d="M17.7397 0.290878H13.2589C13.4429 0.342736 13.6076 0.449304 13.7318 0.596947C13.9615 0.875294 14.1073 1.21522 14.1518 1.5759C14.1901 1.81298 14.2085 2.05293 14.2069 2.29318V10.7276C14.2069 12.4519 13.3874 12.6177 13.2589 12.6364H17.7214C17.5744 12.6177 16.8031 12.4028 16.8031 10.7276V2.29318C16.7917 0.494146 17.6479 0.30957 17.7397 0.290878Z" fill="#C12038"/>
<path d="M22.092 10.6225V4.73472L20.0628 2.3072C20.0663 2.36399 20.0663 2.42096 20.0628 2.47776V10.6225C20.0628 12.4589 19.2593 12.6248 19.1446 12.6434H23.1847C23.0033 12.6177 22.092 12.3958 22.092 10.6225Z" fill="#C12038"/>
<path d="M28.0052 2.33056V7.58513L22.2664 0.290878H19.6174L29.9288 12.6364H29.9954V2.33056C29.9954 0.494146 30.8172 0.30957 30.9434 0.290878H26.9906C27.1559 0.328261 28.0052 0.550219 28.0052 2.33056Z" fill="#C12038"/>
<path d="M40.7223 9.80005C40.6067 9.96911 40.4744 10.1257 40.3275 10.2673L38.3557 12.6294H40.5088L41.0552 9.39819L41.0919 9.1809C40.9807 9.39048 40.8589 9.59402 40.7269 9.7907L40.7223 9.80005Z" fill="#C12038"/>
<path d="M38.2478 10.9309H35.771V7.24168H37.8094C39.0857 7.24168 39.2119 7.79774 39.2303 7.85382V4.9263C39.1936 5.03611 39.0007 5.5548 37.7749 5.5548H35.771V1.97776H38.0665C39.5953 1.97776 40.0314 2.75578 40.2885 3.58988V0.290878H32.0385C32.2198 0.328261 33.1655 0.56891 33.1655 2.36794V10.4309C33.1655 12.4145 32.3093 12.6177 32.1831 12.6364H37.1161L38.5462 10.9239C38.4498 10.9285 38.3511 10.9309 38.2478 10.9309Z" fill="#C12038"/>
<path d="M66.8338 10.3117C66.3873 10.58 65.8909 10.7511 65.3761 10.814H65.3486C65.2874 10.8234 65.2254 10.8304 65.1626 10.8351C65.1626 10.8351 65.1489 10.8351 65.1466 10.8351H65.1075C64.9905 10.8351 64.878 10.8351 64.7471 10.8351H63.0049V10.5313H63.0232C63.0178 10.5208 63.0117 10.5106 63.0049 10.501V10.0313C63.0138 10.0242 63.0202 10.0144 63.0232 10.0033H63.0049V9.58977H63.0163H63.0049V7.59682C63.0049 7.59682 63.0209 7.59682 63.0232 7.5828H63.0049V6.86085H64.1526H64.1779H64.1962H64.4786C65.3738 6.86085 65.95 7.18094 66.2209 7.97999H66.253L66.5216 6.25338L66.5698 5.94965L66.5904 5.82582C66.5921 5.82344 66.593 5.82058 66.593 5.81765C66.593 5.81471 66.5921 5.81185 66.5904 5.80947L66.7144 5.01275C66.6341 5.01275 66.556 5.03612 66.4848 5.04313L66.276 5.06883H66.2071C65.7204 5.11789 65.22 5.1249 64.2352 5.1249H63.4135H63.0347V5.08518C63.0597 5.08978 63.0854 5.08978 63.1104 5.08518C63.0871 5.07315 63.0607 5.06828 63.0347 5.07116V4.76743V4.14361C63.0347 4.14361 63.0508 4.14361 63.0347 4.14361V3.72072H63.0462H63.0347V3.52446H63.0508C63.0508 3.50577 63.0508 3.49876 63.0347 3.49176V2.36094H63.0508V1.99178H65.1626C65.7635 1.96793 66.3594 2.11088 66.8866 2.40533L66.9325 2.4357L66.9669 2.45673C67.2746 2.66574 67.5181 2.9589 67.6693 3.30251L67.7015 3.28382L67.6533 2.71841L67.6831 2.70205C67.6831 2.70205 67.6716 2.70205 67.6693 2.70205H67.651L67.6142 2.2815L67.5798 1.88665H67.5959H67.5798L67.3847 0.108643C66.826 0.212966 66.2585 0.260706 65.6906 0.251163H59.9518V0.286209C60.0755 0.380248 60.182 0.495716 60.2663 0.627324C60.2799 0.645091 60.2921 0.663831 60.303 0.683398L60.3352 0.739472C60.3492 0.760161 60.3615 0.782049 60.3719 0.804891C60.6709 1.45031 60.8126 2.15959 60.7851 2.87261V3.23942V3.61325V4.31417V9.93556C60.7851 11.1435 60.4683 11.9495 60.1309 12.3584H60.1424C60.0814 12.4318 60.0129 12.4984 59.938 12.557V12.592H61.9788C61.9788 12.592 61.9788 12.6061 62.027 12.6131L62.0499 12.592H64.6829C64.7357 12.592 64.7471 12.6037 64.7632 12.592H64.8803C64.8918 12.592 64.9078 12.6061 64.9423 12.592H65.5919C66.2453 12.5732 66.899 12.621 67.5431 12.7346L67.7864 10.8117H67.8048C67.8048 10.8117 67.8048 10.793 67.7887 10.793L67.8162 10.5827L67.9907 9.19725L67.9586 9.17856C67.6737 9.63883 67.2889 10.0265 66.8338 10.3117Z" fill="#C12038"/>
<path d="M64.0474 10.8375L64.045 10.8327L64.0378 10.8351L64.0474 10.8375Z" fill="#262626"/>
<path d="M63.0118 3.85857L63.0188 3.85624H63.0071L63.0118 3.85857Z" fill="#262626"/>
<path d="M67.9084 10.6132L67.9156 10.6084H67.9012L67.9084 10.6132Z" fill="#262626"/>
<path d="M63.4297 6.95196L63.425 6.9473L63.4181 6.95196H63.4297Z" fill="#262626"/>
<path d="M66.4665 12.6319H66.4857C66.4857 12.6319 66.4881 12.6247 66.4665 12.6319Z" fill="#262626"/>
<path d="M58.7146 12.3701C58.6824 12.328 58.6526 12.2813 58.6227 12.2369C58.5929 12.1925 58.6067 12.2112 58.5998 12.1995C58.5929 12.1878 58.5722 12.1575 58.5608 12.1364C58.293 11.6588 58.1075 11.138 58.0121 10.5968C58.0111 10.5843 58.0111 10.5718 58.0121 10.5594C58.011 10.5384 58.011 10.5173 58.0121 10.4963V10.4612L57.9846 10.2767C57.9846 10.2767 57.9846 10.2556 57.9846 10.2463C57.9846 10.2369 57.9846 10.1879 57.9731 10.1622C57.9616 10.1365 57.9731 10.1178 57.9731 10.0968V10.029C57.9731 10.029 57.9731 10.0103 57.9731 9.99864V9.93789V9.85611V9.75799L57.957 9.54537V9.47294L57.9456 9.3094V9.29538L57.9134 8.8281V8.80707L57.8767 8.30241V8.21362L57.7826 6.93094V6.91458V6.78608L57.576 3.94268V3.92165L57.5415 3.43801V3.40297L57.5186 3.09223C57.5186 2.98942 57.5186 2.88195 57.5186 2.77214C57.523 2.4263 57.5623 2.08183 57.6357 1.74412C57.6735 1.57759 57.7218 1.41371 57.7803 1.25348V1.23478L57.8078 1.16236C57.8149 1.14799 57.821 1.13316 57.8262 1.11796C57.8647 1.0282 57.9084 0.940829 57.957 0.856287C57.9615 0.846456 57.9669 0.83707 57.9731 0.82825L58.0006 0.781522L58.0236 0.748813C58.0572 0.696637 58.094 0.646692 58.1338 0.599283V0.587601C58.2184 0.482247 58.3191 0.391513 58.4322 0.318914L58.4161 0.283868H54.7204C54.8309 0.465085 54.8664 0.683528 54.8191 0.891333C54.8083 0.963716 54.7937 1.03547 54.7755 1.10628V1.12497C54.6866 1.34245 54.5758 1.54994 54.4449 1.74412C54.4405 1.75623 54.4351 1.76796 54.4288 1.77917L54.4082 1.81889L54.3829 1.86561V1.87963L54.3439 1.95673L54.3301 1.98477L54.2727 2.09458L54.2452 2.14832L54.2245 2.19037L54.2039 2.23243L53.0263 4.5478L52.8518 4.88892L52.838 4.91462V4.92864L52.7761 5.05247L52.7577 5.08985C52.597 5.40059 52.4478 5.69732 52.3124 5.98937L52.2917 6.03609C52.0143 6.60469 51.7987 7.20247 51.649 7.81877H51.587V7.76971C51.5859 7.75103 51.5859 7.73231 51.587 7.71363V7.68092C51.5732 7.59448 51.5594 7.50803 51.5434 7.42392C51.5423 7.41695 51.5423 7.40986 51.5434 7.40289C51.3554 6.52574 51.0463 5.68013 50.6252 4.89126L50.2717 4.27678V4.25575L50.1179 3.9637L49.8493 3.45203V3.43568L49.723 3.20204V3.18335L49.6037 2.9497V2.93802L49.4131 2.57588L49.4017 2.55252L49.3833 2.51981L49.2134 2.19271L49.1859 2.14131L49.1492 2.07122L49.0482 1.8773C49.0183 1.82356 48.9931 1.76982 48.9678 1.71842C48.9678 1.69973 48.9517 1.68337 48.9449 1.66468C48.9035 1.57824 48.8691 1.49413 48.8393 1.41235C48.8163 1.34693 48.7934 1.28151 48.775 1.22077V1.20441C48.752 1.12653 48.7337 1.0541 48.7199 0.987126C48.721 0.969231 48.721 0.951284 48.7199 0.933389C48.692 0.783639 48.692 0.629876 48.7199 0.480126V0.454426C48.7361 0.388991 48.7641 0.327194 48.8025 0.272186H45.0999L45.0838 0.307232C45.8023 0.786195 46.002 2.13664 45.9469 3.11092L45.862 4.51276V4.52444L45.7702 6.05245L45.6233 8.46595V8.47764L45.6118 8.65053V8.66221V8.73464V8.78838V8.83043L45.5957 9.06407V9.09912V9.1879V9.27669V9.3608L45.5796 9.6435V9.67621V9.81172V9.8678V9.99163C45.5786 9.99938 45.5786 10.0072 45.5796 10.015C45.5796 10.015 45.5796 10.015 45.5796 10.0313V10.1178C45.5808 10.1341 45.5808 10.1505 45.5796 10.1669V10.1902C45.5659 10.3304 45.5475 10.4636 45.5268 10.5921C45.5268 10.5921 45.5268 10.6061 45.5268 10.6154V10.6505V10.6622C45.5219 10.683 45.5181 10.704 45.5154 10.7253C45.394 11.4046 45.0951 12.0382 44.65 12.5593L44.666 12.5944H48.185L48.2011 12.5593C48.035 12.374 47.9139 12.1515 47.8476 11.9098C47.827 11.8444 47.8086 11.7766 47.7902 11.7042V11.6832C47.7902 11.6692 47.7902 11.6575 47.7902 11.6435C47.7902 11.6294 47.7902 11.6318 47.7902 11.6248C47.7902 11.6178 47.7719 11.543 47.765 11.5009V11.4659C47.742 11.3374 47.7259 11.1995 47.7122 11.0524C47.7122 11.0383 47.7122 11.022 47.7122 11.0056C47.7122 10.9893 47.7122 10.9379 47.7122 10.9028C47.7122 10.8678 47.7122 10.8514 47.7122 10.8257C47.7122 10.8 47.7122 10.7369 47.7122 10.6902V10.6668C47.7122 10.6411 47.7122 10.6178 47.7122 10.5921C47.7122 10.5664 47.7122 10.529 47.7122 10.4986C47.7122 10.4683 47.7122 10.4075 47.7122 10.3584L47.7282 10.0197V9.98695V9.91453V9.8935L47.781 8.81875L47.8384 7.5898L47.7466 7.16458L47.7696 6.6973C47.7833 6.35151 47.7925 5.966 47.7856 5.52909C47.7856 5.50339 47.7856 5.47536 47.7856 5.44732V5.42863C47.7856 5.0992 47.7627 4.72771 47.7328 4.33753V4.31416C47.7168 4.09922 47.6984 3.87492 47.6754 3.63894H47.7466L47.8086 3.87258C47.8361 3.98006 47.8637 4.08286 47.8912 4.18333C47.9945 4.54313 48.1001 4.86789 48.2172 5.1763C48.3297 5.47302 48.4467 5.75339 48.5891 6.03376L48.6097 6.07348V6.0945V6.11553C48.6947 6.28375 48.7842 6.45197 48.8783 6.62253L49.5669 7.85615L49.583 7.88419L49.6083 7.92858L49.8677 8.39586L49.8814 8.41923L50.7721 9.99864C50.8616 10.1575 50.9397 10.307 51.0016 10.4496C51.0407 10.5267 51.0774 10.6014 51.1095 10.6832L51.1233 10.7136C51.3398 11.1634 51.4884 11.6438 51.564 12.1388H51.6903C51.6903 12.043 51.7155 11.9238 51.7431 11.7836C51.7569 11.7089 51.7752 11.631 51.7982 11.55L51.8372 11.4145C51.8415 11.397 51.8469 11.3799 51.8533 11.3631C51.867 11.3187 51.8808 11.272 51.8969 11.2252C51.913 11.1785 51.8969 11.2042 51.9084 11.1949L51.9221 11.1528V11.1248C51.9221 11.0944 51.9428 11.0617 51.9543 11.0313C51.9595 11.0218 51.9633 11.0116 51.9658 11.001C52.0071 10.8982 52.0507 10.7883 52.1012 10.6715C52.1012 10.6715 52.1127 10.6458 52.1196 10.6318C52.1264 10.6178 52.1402 10.5851 52.1494 10.5617L52.1632 10.5383C52.1953 10.4659 52.2297 10.3935 52.2665 10.3187L52.3078 10.2346L52.4271 10.001L53.4969 7.98699L53.5864 7.81877V7.80008L54.0179 6.99168L54.0317 6.96365L54.1855 6.67393C54.3164 6.44029 54.4357 6.19263 54.5505 5.95899V5.94497C54.5826 5.87722 54.6125 5.80946 54.6446 5.74404V5.72535C54.6653 5.6833 54.6859 5.63891 54.7043 5.59685C54.7295 5.5361 54.7571 5.47769 54.7823 5.41695L54.8007 5.37723V5.35153C54.8374 5.26742 54.8719 5.18097 54.9063 5.09686L54.9201 5.06649L54.9706 4.93331C54.9697 4.92633 54.9697 4.91927 54.9706 4.91228C54.9706 4.87724 54.9958 4.84453 55.0073 4.80948V4.78612C55.0716 4.61556 55.1313 4.44033 55.1909 4.25809C55.1909 4.25809 55.1909 4.2394 55.1909 4.23005C55.2491 4.05093 55.3065 3.86168 55.3631 3.66231H55.5513C55.5502 3.6763 55.5502 3.69037 55.5513 3.70436V3.72539C55.5376 3.84455 55.5261 3.95903 55.5146 4.07351C55.5146 4.11557 55.5146 4.15763 55.5031 4.19968C55.4825 4.43332 55.4641 4.66696 55.4526 4.87957V4.90761C55.4526 4.93565 55.4526 4.96368 55.4526 4.99172V5.00574C55.4526 5.12957 55.4526 5.23938 55.4389 5.36555V5.37956C55.4389 5.45433 55.4389 5.52676 55.4389 5.59919V5.66928C55.4389 5.93329 55.4389 6.18095 55.4549 6.41926V6.43796C55.4549 6.53141 55.4664 6.62487 55.4733 6.71832L55.5513 8.05241V8.15988L55.5789 8.54305L55.5927 8.73931L55.673 9.86546V9.8935V10.0243V10.0898V10.1505V10.1739V10.258V10.2977V10.3538C55.6942 10.6363 55.6896 10.9202 55.6592 11.2019C55.6605 11.2268 55.6605 11.2517 55.6592 11.2766C55.6592 11.3374 55.6432 11.3935 55.634 11.4495C55.6329 11.4549 55.6329 11.4605 55.634 11.4659C55.5818 11.8689 55.4159 12.2479 55.1565 12.557L55.1726 12.592H58.8454L58.8615 12.557C58.8065 12.4963 58.7551 12.4323 58.7077 12.3654L58.7146 12.3701Z" fill="#C12038"/>
<path d="M88.3771 0.108643C87.6516 0.211175 86.9196 0.258813 86.1872 0.251163H82.2848C81.5532 0.258654 80.822 0.211017 80.0972 0.108643L80.072 0.414712H80.0559H80.0697L79.9939 1.33292H79.9756H79.9916V1.39366C79.9801 1.39366 79.9801 1.39366 79.9916 1.41002L79.8309 3.33522L79.8608 3.35157C80.1444 2.8042 80.617 2.38307 81.1876 2.16935L81.3437 2.12029C81.5043 2.07665 81.6689 2.05003 81.8349 2.04085H83.1571V2.11328V6.37021V9.79304C83.1576 10.0571 83.1407 10.3209 83.1066 10.5827C83.1066 10.5827 83.1066 10.5827 83.1066 10.5968C83.0777 10.8145 83.034 11.03 82.9758 11.2416C82.9758 11.2416 82.9758 11.2416 82.9758 11.2533C82.9574 11.3187 82.9368 11.3795 82.9184 11.4402L82.8794 11.543C82.8323 11.6764 82.7755 11.8061 82.7095 11.9308C82.5873 12.1835 82.405 12.4012 82.1792 12.564V12.5991H86.3112V12.564C85.9875 12.3794 85.6983 11.9589 85.5192 11.3117C85.5178 11.3063 85.5178 11.3007 85.5192 11.2953C85.3926 10.8052 85.3316 10.2998 85.3379 9.79304V5.2277V2.21141V2.06421H86.5407C86.9725 2.06971 87.3947 2.19514 87.7616 2.42695C88.1285 2.65877 88.4263 2.98817 88.6227 3.37961L88.6549 3.36325L88.3771 0.108643Z" fill="#C12038"/>
<path d="M78.8186 10.1972C78.8025 10.1552 78.7865 10.1108 78.7727 10.0687V10.0547C78.7521 10.001 78.7337 9.9449 78.713 9.88882L78.6993 9.84677L78.651 9.69724L78.612 9.58042L78.5982 9.53836L78.2998 8.6038V8.5781L78.1896 8.23699V8.21362L78.1736 8.16456V8.14119L78.0818 7.85615L78.068 7.81176L77.9808 7.5384L77.9693 7.50336L77.8821 7.23467L77.6709 6.57347L77.2118 5.14593L77.2003 5.10387L77.1819 5.04546L77.1682 5.00574L77.1245 4.86789V4.84219L76.8284 3.90763V3.89128L76.6907 3.61324L76.6126 3.3796V3.35858L76.2959 2.37495C76.2821 2.3329 76.2729 2.29084 76.2614 2.24878C75.9814 1.25815 76.2867 0.57592 76.5782 0.286206V0.25116H72.3384V0.286206C72.5 0.452741 72.617 0.65867 72.6781 0.884325C72.6781 0.884325 72.6781 0.898344 72.6781 0.905353C72.763 1.21788 72.7817 1.54516 72.7332 1.86561V1.88197C72.7084 2.04555 72.6724 2.20716 72.6253 2.3656L72.5381 2.67868V2.70205L72.3086 3.3796V3.4053L72.2649 3.54082L71.7255 5.24873L71.5809 5.71601V5.74171L71.5442 5.86086L71.3904 6.3188V6.33282L70.9198 7.83746L70.9014 7.89354L70.6581 8.67389L70.3482 9.66687C70.2396 10.0102 70.1124 10.3472 69.9671 10.6762C69.9659 10.6824 69.9659 10.6887 69.9671 10.6949L69.8638 10.9285C69.863 10.9371 69.863 10.9457 69.8638 10.9542C69.8455 10.9916 69.8271 11.0313 69.8065 11.0687L69.7927 11.0967C69.6219 11.439 69.4262 11.7678 69.2073 12.0804L69.1935 12.0991C69.1499 12.1575 69.1109 12.2135 69.0696 12.2649L69.0558 12.2813C69.0402 12.3026 69.0234 12.3229 69.0053 12.342L68.9915 12.3607C68.9319 12.4308 68.8768 12.4916 68.824 12.543V12.578H72.1479V12.543C71.9734 12.3631 71.838 11.8794 71.9849 11.0944V11.0477C71.9849 11.0196 71.9964 10.9916 72.0033 10.9612V10.9309L72.0377 10.786C72.0377 10.786 72.0377 10.765 72.0377 10.7533C72.0377 10.7416 72.0492 10.7136 72.0538 10.6925V10.6668C72.0836 10.5664 72.1134 10.4659 72.1502 10.3584L72.2007 10.2089V10.1926L72.2879 9.93088H76.4198V9.94723L76.4336 9.98228V10.0127V10.029L76.4519 10.0804L76.4634 10.1108L76.5116 10.2556L76.53 10.3117L76.5461 10.3584V10.3841L76.5598 10.4239V10.4496C76.5598 10.4636 76.5598 10.4753 76.5598 10.4869C76.5598 10.4986 76.5782 10.543 76.5851 10.5687L76.6035 10.6341C76.6035 10.6552 76.6149 10.6762 76.6195 10.6972C76.6205 10.7112 76.6205 10.7253 76.6195 10.7393C76.6379 10.807 76.654 10.8748 76.6677 10.9402C76.6726 10.9571 76.6765 10.9742 76.6792 10.9916C76.7366 11.2491 76.7643 11.5126 76.7618 11.7766C76.76 11.9461 76.7313 12.1141 76.6769 12.2743C76.6435 12.3693 76.5875 12.4543 76.5139 12.522V12.557H80.1294V12.522C79.8172 12.2089 79.2456 11.3234 78.8186 10.1972ZM74.3378 2.61326H74.4021C74.4158 2.7184 74.4319 2.8212 74.4457 2.92401C74.4457 2.92401 74.4457 2.94737 74.4457 2.95905C74.4457 2.97073 74.4457 3.02914 74.4617 3.06185V3.07821C74.4916 3.25811 74.5237 3.43568 74.5582 3.60857C74.5592 3.61554 74.5592 3.62263 74.5582 3.6296C74.5582 3.66932 74.5765 3.7067 74.5834 3.74408V3.77446C74.5995 3.84221 74.6132 3.9123 74.6293 3.98006C74.6546 4.08753 74.6798 4.19267 74.7074 4.29781L74.7625 4.51743C74.7632 4.52286 74.7632 4.52836 74.7625 4.53379L74.8658 4.89593V4.91929V4.93798C74.9048 5.07116 74.9438 5.20433 74.9851 5.33751L75.0058 5.4076C75.0173 5.44265 75.0264 5.47536 75.0379 5.50807V5.5291C75.0407 5.54186 75.0445 5.55437 75.0494 5.56648V5.58984C75.1228 5.82348 75.1986 6.05712 75.2789 6.29076V6.30712L75.4718 6.91926V6.94262L75.862 8.18559H72.8503L72.9513 7.87017L73.0638 7.51504V7.487L73.2176 6.99168V6.97533L73.4242 6.31413C73.5466 5.93563 73.6652 5.55168 73.78 5.16228V5.14359C73.8534 4.89126 73.9246 4.63425 73.9889 4.37491C74.1469 3.79707 74.2636 3.20831 74.3378 2.61326Z" fill="#C12038"/>
</svg>
