<svg width="90" height="35" viewBox="0 0 90 35" fill="none" xmlns="http://www.w3.org/2000/svg">
<path d="M35.8099 5.84666C35.8375 6.06015 35.8742 6.26904 35.9201 6.47563H34.8826C31.6298 6.45727 28.3794 6.45268 25.1289 6.42054C21.8785 6.3884 18.6258 6.36315 15.3776 6.32643L10.4997 6.25067L8.06182 6.21395L5.62399 6.16345L8.06182 6.11524L10.4997 6.07622L15.3776 6.00276C18.6265 5.96297 21.877 5.93083 25.1289 5.90635C28.3794 5.87651 31.6298 5.86962 34.8826 5.85126L35.8099 5.84666Z" fill="#262626"/>
<path d="M83.6346 6.16114L81.1968 6.21164L78.7567 6.24837L73.881 6.32412C70.6306 6.36238 67.3793 6.39452 64.1274 6.42053C60.8769 6.45037 57.6265 6.45497 54.376 6.47333H53.3362C53.3821 6.26673 53.4188 6.05784 53.4464 5.84436H54.3646C57.615 5.86272 60.8655 5.86732 64.1159 5.89945C67.3663 5.93159 70.6191 5.95684 73.8695 5.99586L78.7452 6.06932L81.1853 6.10834L83.6346 6.16114Z" fill="#262626"/>
<path d="M46.2522 16.5277C46.2522 15.0172 45.536 14.8336 45.3891 14.8152H48.6028C48.4926 14.8336 47.7558 14.9805 47.7558 16.5277V20.3474H54.4564V16.5277C54.4564 15.0172 53.7562 14.8336 53.6093 14.8152H56.7932C56.6463 14.8336 55.9645 15.0172 55.9645 16.5277V25.3608C55.9645 26.8529 56.6279 27.0549 56.7932 27.0732H53.6162C53.7631 27.0549 54.4449 26.8896 54.4449 25.3608V21.2679H47.7466V25.3539C47.7466 26.846 48.4352 27.048 48.5936 27.0664H45.4075C45.5544 27.048 46.2522 26.8827 46.2522 25.3539V16.5277Z" fill="#C12038"/>
<path d="M58.1269 27.0664C58.2187 27.048 58.9005 26.8827 59.7085 24.9315L64.07 14.2918L68.4062 24.9499C69.143 26.8093 69.8983 27.048 70.0452 27.0664H66.6662C66.758 27.0664 67.2378 26.9745 67.2378 26.3111C67.189 25.9355 67.0838 25.5695 66.9256 25.2254L66.1704 23.2742H61.4393L60.7025 25.1519C60.556 25.4785 60.463 25.8265 60.427 26.1826C60.427 26.9378 60.9986 27.048 61.1271 27.0664H58.1269ZM65.8008 22.3537L63.7945 17.3035L61.7882 22.3537H65.8008Z" fill="#C12038"/>
<path d="M72.2443 16.5277C72.2443 15.0172 71.5556 14.8336 71.3995 14.8152H74.565C74.4181 14.8336 73.718 15.0172 73.718 16.5277V26.1459H76.7182C78.3251 26.1459 78.9816 25.9989 79.4728 24.7112L79.1584 27.0664H71.4363C71.5648 27.048 72.2443 26.8643 72.2443 25.2299V16.5277Z" fill="#C12038"/>
<path d="M81.9497 16.5277C81.9497 15.0172 81.2611 14.8336 81.105 14.8152H84.2705C84.1236 14.8336 83.4234 15.0172 83.4234 16.5277V26.1459H86.4237C88.0305 26.1459 88.687 25.9989 89.1668 24.7112L88.8523 27.0664H81.1371C81.2657 27.048 81.9451 26.8643 81.9451 25.2299L81.9497 16.5277Z" fill="#C12038"/>
<path d="M10.9771 17.2645L9.09251 19.6036C9.18088 20.0496 9.22471 20.5033 9.22336 20.958C9.22336 23.2007 8.0756 25.3746 5.59416 25.3746H4.43492L3.05762 27.0663H5.48627C10.0773 27.0663 12.0216 24.0317 12.0216 20.8088C12.049 19.5477 11.6841 18.3092 10.9771 17.2645ZM3.78989 16.4818H5.0616C6.77405 16.4818 7.93328 17.1497 8.58521 18.2631L10.1439 16.3302C9.05119 15.3592 7.53157 14.806 5.68827 14.806H0C0.181345 14.8451 1.14775 15.0631 1.14775 16.872V24.7915C1.14775 26.8712 0.284643 27.0572 0.137731 27.0732H1.48519L3.7807 24.2153L3.78989 16.4818Z" fill="#262626"/>
<path d="M22.3284 25.0624V20.5173L20.2877 17.8889V25.0624C20.2877 26.885 19.4797 27.0503 19.3466 27.0663H23.4349C23.2489 27.0503 22.3284 26.8276 22.3284 25.0624ZM27.2844 14.806C27.4497 14.8451 28.2945 15.0631 28.2945 16.833V22.0369L22.5144 14.806H19.459L28.9877 27.0663H30.3191V16.833C30.3191 14.9966 31.1501 14.8244 31.2763 14.806H27.2844Z" fill="#262626"/>
<path d="M16.9868 25.1726V16.7962C16.9868 15.4557 17.4734 15.0172 17.7535 14.8726C17.8121 14.842 17.8747 14.8196 17.9394 14.806H13.4035C13.5297 14.8451 14.3607 15.0631 14.3607 16.7962V25.1726C14.3607 26.885 13.5297 27.0503 13.4035 27.0663H17.905C17.7672 27.0503 16.9868 26.8276 16.9868 25.1726Z" fill="#262626"/>
<path d="M39.0237 25.3677L37.6464 27.0663H40.9565L41.5326 23.6437C40.906 24.7915 40.339 25.2965 39.0237 25.3677ZM36.1566 21.7132H38.2225C39.508 21.7132 39.6411 22.2618 39.6572 22.3192V19.4108C39.6205 19.521 39.4277 20.0329 38.1858 20.0329H36.1589V16.4818H38.4773C40.0245 16.4818 40.4652 17.2576 40.7269 18.0886V14.806H32.3828C32.5687 14.8451 33.5305 15.0838 33.5305 16.872V24.8787C33.5305 26.8506 32.6628 27.0526 32.5366 27.0686H36.0579L37.4191 25.3769H36.1612L36.1566 21.7132Z" fill="#262626"/>
<path fill-rule="evenodd" clip-rule="evenodd" d="M45.8069 4.90321L44.6247 5.96833L43.9154 6.60189L42.2374 8.10774C42.2902 8.43106 42.4418 8.73013 42.6712 8.96397C43.2576 8.55796 43.8208 8.11961 44.3584 7.65094C44.4525 7.5683 44.5398 7.48566 44.627 7.40532C44.887 7.15899 45.123 6.88842 45.3317 6.5973C45.3616 6.56287 45.3845 6.52614 45.4121 6.48941C45.6416 6.15427 45.9079 6.00506 46.1788 6.04179L45.8069 4.90321ZM42.9765 8.22941C42.9615 8.24284 42.944 8.25316 42.925 8.25975C42.906 8.26634 42.8858 8.26907 42.8657 8.26779C42.8457 8.26651 42.826 8.26124 42.808 8.25228C42.79 8.24333 42.7739 8.23087 42.7607 8.21563C42.7339 8.18538 42.7201 8.14577 42.7222 8.10539C42.7243 8.065 42.7423 8.02709 42.7722 7.99986C42.8014 7.97139 42.8405 7.95546 42.8813 7.95546C42.922 7.95546 42.9611 7.97139 42.9903 7.99986C43.005 8.01557 43.0164 8.03411 43.0237 8.05435C43.031 8.07459 43.0341 8.09611 43.0328 8.11759C43.0315 8.13907 43.0258 8.16007 43.0162 8.17929C43.0065 8.19852 42.993 8.21557 42.9765 8.22941ZM45.6049 5.87421C45.5816 5.89359 45.5531 5.90576 45.523 5.90923C45.4929 5.9127 45.4624 5.90733 45.4353 5.89378C45.4082 5.88022 45.3856 5.85906 45.3703 5.83288C45.355 5.80671 45.3477 5.77664 45.3492 5.74637C45.3507 5.71609 45.361 5.68691 45.3788 5.66239C45.3967 5.63787 45.4212 5.61907 45.4496 5.60828C45.4779 5.5975 45.5088 5.59519 45.5384 5.60165C45.568 5.60811 45.5951 5.62306 45.6164 5.64466C45.6312 5.66022 45.6427 5.67864 45.6502 5.6988C45.6577 5.71896 45.661 5.74043 45.6599 5.7619C45.6589 5.78338 45.6534 5.80442 45.644 5.82373C45.6345 5.84303 45.6212 5.86021 45.6049 5.87421Z" fill="#C12038"/>
<path fill-rule="evenodd" clip-rule="evenodd" d="M42.1295 8.20186L41.9367 8.37402C41.9787 8.6772 42.1143 8.95969 42.3246 9.18204L42.5542 9.03742C42.3337 8.80657 42.1861 8.516 42.1295 8.20186Z" fill="#676767"/>
<path fill-rule="evenodd" clip-rule="evenodd" d="M48.3297 2.63754L45.9492 4.77466L46.3808 6.10606C46.4062 6.11726 46.4307 6.1303 46.4542 6.14508L46.8835 6.37463C49.8569 3.60165 51.5143 1.47678 51.8556 0C50.6177 0.79234 49.4393 1.67386 48.3297 2.63754ZM48.7452 4.2949C48.1391 4.93994 47.5033 5.55972 46.8582 6.16115L46.6953 6.07851C49.2877 3.68965 50.9106 1.79126 51.564 0.38335C51.2273 1.18299 50.7756 1.92924 50.2235 2.59852C49.7644 3.18617 49.2593 3.75316 48.7452 4.2949Z" fill="#C12038"/>
<path fill-rule="evenodd" clip-rule="evenodd" d="M40.9152 2.63754C39.8063 1.67396 38.6286 0.792446 37.3916 0C37.7313 1.47831 39.3879 3.60012 42.3613 6.36545L42.7906 6.1359C42.8141 6.12112 42.8387 6.10807 42.8641 6.09687L43.2979 4.76548L40.9152 2.63754ZM42.3866 6.16115C41.7416 5.55972 41.108 4.93994 40.502 4.2949C39.9855 3.75316 39.4828 3.18617 39.0214 2.59852C38.4707 1.92858 38.02 1.18246 37.6831 0.38335C38.335 1.79126 39.9572 3.68965 42.5496 6.07851L42.3866 6.16115Z" fill="#C12038"/>
<path fill-rule="evenodd" clip-rule="evenodd" d="M46.6976 9.04431C46.9185 8.81173 47.0649 8.51832 47.1176 8.20186L47.3105 8.37402C47.2675 8.67738 47.1311 8.95981 46.9202 9.18204L46.6907 9.03513L46.6976 9.04431Z" fill="#676767"/>
<path fill-rule="evenodd" clip-rule="evenodd" d="M45.3294 6.5973L44.6247 5.96833L43.4425 4.90781L43.0684 6.05556C43.3438 6.01883 43.5986 6.16804 43.8374 6.50319C43.8613 6.5406 43.8874 6.57662 43.9154 6.61107C44.1258 6.90224 44.3633 7.17279 44.6247 7.41909C44.7074 7.50173 44.7969 7.58437 44.8887 7.66471C45.4263 8.13338 45.9896 8.57174 46.5759 8.97775C46.8053 8.7439 46.9569 8.44484 47.0097 8.12152L45.3294 6.5973ZM43.858 5.86044C43.8308 5.89015 43.7931 5.90817 43.7529 5.91074C43.7127 5.91331 43.673 5.90022 43.6422 5.87422C43.6258 5.86038 43.6123 5.84333 43.6026 5.8241C43.5929 5.80488 43.5873 5.78388 43.586 5.7624C43.5847 5.74092 43.5878 5.7194 43.5951 5.69916C43.6024 5.67892 43.6138 5.66037 43.6285 5.64467C43.6559 5.61422 43.6942 5.59591 43.7351 5.59376C43.776 5.59161 43.8161 5.60579 43.8465 5.63319C43.877 5.66058 43.8953 5.69895 43.8974 5.73985C43.8996 5.78074 43.8854 5.82082 43.858 5.85126V5.86044ZM46.4841 8.21564C46.4709 8.23087 46.4549 8.24333 46.4368 8.25228C46.4188 8.26124 46.3992 8.26651 46.3791 8.26779C46.359 8.26907 46.3388 8.26634 46.3198 8.25975C46.3008 8.25316 46.2833 8.24285 46.2683 8.22941C46.2379 8.20201 46.2195 8.16365 46.2174 8.12275C46.2152 8.08185 46.2294 8.04178 46.2568 8.01134C46.2842 7.9809 46.3226 7.96258 46.3635 7.96043C46.4044 7.95828 46.4445 7.97246 46.4749 7.99986C46.4898 8.01333 46.5019 8.02964 46.5104 8.04784C46.519 8.06603 46.5238 8.08574 46.5247 8.10582C46.5255 8.12591 46.5224 8.14596 46.5154 8.16481C46.5084 8.18366 46.4978 8.20094 46.4841 8.21564Z" fill="#C12038"/>
<path d="M44.6216 0.383117L43.6509 1.35378L44.6216 2.32443L45.5923 1.35377L44.6216 0.383117Z" fill="#C12038"/>
<path d="M35.2975 33.2045C35.2975 32.8878 35.1277 32.8419 35.0932 32.8373H35.8393C35.8048 32.8373 35.6419 32.8832 35.6419 33.2V34.0034C35.3417 34.1353 35.0171 34.2026 34.6892 34.2008C33.7572 34.2008 33.2867 33.5007 33.2867 32.7592C33.2767 32.5545 33.3093 32.3498 33.3824 32.1583C33.4556 31.9668 33.5676 31.7925 33.7115 31.6465C33.8554 31.5004 34.0279 31.3858 34.2184 31.3099C34.4088 31.2339 34.6129 31.1983 34.8178 31.2052C35.0966 31.2023 35.372 31.2661 35.6212 31.3911V31.9879C35.5541 31.812 35.4316 31.6626 35.2722 31.5624C35.1128 31.4622 34.9251 31.4166 34.7374 31.4324C34.0488 31.4324 33.6562 32.0292 33.6562 32.6766C33.6562 33.3239 34.0419 33.9552 34.7925 33.9552C34.9649 33.9518 35.1355 33.92 35.2975 33.8611V33.2045Z" fill="#262626"/>
<path d="M37.2855 31.678C37.2855 31.3222 37.1041 31.2786 37.0559 31.274H38.773V31.7331C38.773 31.6849 38.7225 31.4806 38.3138 31.4806H37.6137V32.5618H38.1968C38.4722 32.5618 38.5113 32.4149 38.5182 32.385V32.9474C38.5182 32.9268 38.4814 32.7707 38.2014 32.7707H37.6137V33.9184H38.3345C38.6811 33.9184 38.8074 33.8519 38.9268 33.6177L38.8487 34.1319H37.0926C37.1271 34.1319 37.2946 34.0883 37.2946 33.7233L37.2855 31.678Z" fill="#262626"/>
<path d="M40.1112 32.734C40.1112 31.8663 40.6943 31.2052 41.5367 31.2052C42.3424 31.2052 42.875 31.8318 42.875 32.6743C42.875 33.5167 42.3126 34.2031 41.4541 34.2031C40.6484 34.2031 40.1112 33.5741 40.1112 32.734ZM42.5307 32.773C42.5307 32.0086 42.1152 31.4416 41.4495 31.4416C40.8664 31.4416 40.4624 31.9007 40.4624 32.61C40.4624 33.3974 40.8917 33.9644 41.5459 33.9644C42.129 33.9735 42.5307 33.48 42.5307 32.773Z" fill="#262626"/>
<path d="M44.3855 31.678C44.3855 31.3222 44.2087 31.2786 44.1743 31.2694H45.1797C45.7398 31.2694 46.1094 31.6138 46.1094 32.0545C46.11 32.1574 46.0903 32.2594 46.0513 32.3546C46.0124 32.4498 45.955 32.5364 45.8824 32.6093C45.8099 32.6823 45.7237 32.7402 45.6287 32.7797C45.5337 32.8192 45.4318 32.8396 45.3289 32.8396C45.426 32.8923 45.5058 32.972 45.5585 33.0691L46.0566 33.884C46.0921 33.948 46.1414 34.0033 46.201 34.0458C46.2605 34.0883 46.3289 34.1169 46.4009 34.1296H45.8087L45.2073 33.1265C45.0902 32.9291 44.9915 32.8763 44.8377 32.8763H44.7298V33.744C44.7298 34.0906 44.8905 34.1342 44.9272 34.1388H44.1949C44.2294 34.1388 44.3924 34.0998 44.3924 33.744L44.3855 31.678ZM45.1063 32.672C45.5814 32.672 45.7536 32.3942 45.7536 32.0774C45.7529 31.9949 45.7352 31.9135 45.7018 31.838C45.6683 31.7626 45.6198 31.6948 45.5591 31.6389C45.4985 31.583 45.427 31.5401 45.3491 31.5128C45.2712 31.4856 45.1886 31.4746 45.1063 31.4806H44.716V32.672H45.1063Z" fill="#262626"/>
<path d="M49.4723 33.2045C49.4723 32.8878 49.3024 32.8419 49.268 32.8373H50.014C49.9796 32.8373 49.8166 32.8832 49.8166 33.2V34.0034C49.5164 34.1353 49.1919 34.2026 48.864 34.2008C47.932 34.2008 47.4614 33.5007 47.4614 32.7592C47.4515 32.5545 47.4841 32.3498 47.5572 32.1583C47.6303 31.9668 47.7424 31.7925 47.8862 31.6465C48.0301 31.5004 48.2027 31.3858 48.3931 31.3099C48.5836 31.2339 48.7876 31.1983 48.9925 31.2052C49.2713 31.2023 49.5468 31.2661 49.796 31.3911V31.9879C49.7289 31.812 49.6064 31.6626 49.447 31.5624C49.2875 31.4622 49.0998 31.4166 48.9122 31.4324C48.2235 31.4324 47.8287 32.0292 47.8287 32.6766C47.8287 33.3239 48.2167 33.9552 48.9765 33.9552C49.1488 33.9518 49.3195 33.92 49.4815 33.8611L49.4723 33.2045Z" fill="#262626"/>
<path d="M51.4464 31.678C51.4464 31.3406 51.2788 31.297 51.2444 31.2878H51.9859C51.9606 31.2878 51.7885 31.3314 51.7885 31.678V33.744C51.7885 34.0791 51.9491 34.125 51.9859 34.1296H51.2536C51.288 34.1296 51.4464 34.086 51.4464 33.744V31.678Z" fill="#262626"/>
<path d="M53.1612 34.1365C53.1841 34.1365 53.3425 34.0929 53.5308 33.6384L54.5477 31.1592L55.5554 33.643C55.7276 34.0768 55.9043 34.1319 55.9388 34.1365H55.1537C55.1744 34.1365 55.2868 34.1159 55.2868 33.9598C55.2754 33.8723 55.2506 33.7872 55.2134 33.7073L55.0366 33.2482H53.9348L53.7626 33.6866C53.729 33.7592 53.7073 33.8367 53.6983 33.9161C53.6931 33.965 53.7073 34.014 53.7377 34.0527C53.7682 34.0913 53.8126 34.1164 53.8613 34.1227L53.1612 34.1365ZM54.9517 33.037L54.4926 31.8617L54.0335 33.037H54.9517Z" fill="#262626"/>
</svg>
